<svg width="32" height="32" viewBox="0 0 32 32" fill="none" xmlns="http://www.w3.org/2000/svg">
  <defs>
    <linearGradient id="faviconGradient" x1="0%" y1="0%" x2="100%" y2="100%">
      <stop offset="0%" style="stop-color:#10B981" />
      <stop offset="50%" style="stop-color:#059669" />
      <stop offset="100%" style="stop-color:#047857" />
    </linearGradient>
    <filter id="faviconShadow" x="-50%" y="-50%" width="200%" height="200%">
      <feDropShadow dx="0" dy="1" stdDeviation="1" flood-color="#000000" flood-opacity="0.3"/>
    </filter>
  </defs>
  
  <!-- Background circle with economic gradient -->
  <circle cx="16" cy="16" r="16" fill="url(#faviconGradient)"/>
  
  <!-- Economic graph with Lebanese elements -->
  <g transform="translate(6, 6)" filter="url(#faviconShadow)">
    <!-- Chart background -->
    <rect x="2" y="8" width="18" height="12" fill="none" stroke="#FFFFFF" stroke-width="1" opacity="0.3" rx="1"/>
    
    <!-- Chart bars -->
    <rect x="4" y="16" width="2" height="4" fill="#FFFFFF" opacity="0.7"/>
    <rect x="7" y="14" width="2" height="6" fill="#FFFFFF" opacity="0.8"/>
    <rect x="10" y="12" width="2" height="8" fill="#FFFFFF" opacity="0.9"/>
    <rect x="13" y="10" width="2" height="10" fill="#FFFFFF"/>
    <rect x="16" y="11" width="2" height="9" fill="#FFFFFF" opacity="0.9"/>
    
    <!-- Trend line -->
    <path d="M4 18 L7 16 L10 14 L13 12 L16 13" stroke="#F59E0B" stroke-width="1.5" stroke-linecap="round" fill="none"/>
    
    <!-- Lebanese flag accent -->
    <rect x="18" y="4" width="1" height="20" fill="#ED1C24"/>
    <rect x="19" y="4" width="1" height="20" fill="#FFFFFF"/>
    <rect x="20" y="4" width="1" height="20" fill="#ED1C24"/>
    
    <!-- Cedar tree symbol -->
    <path d="M19 8 L19 20 L18 18 L19 16 L18 14 L19 12 L18 10 L19 8 Z" fill="#00A651"/>
  </g>
</svg>