<svg width="410" height="323" viewBox="0 0 410 323" fill="none" xmlns="http://www.w3.org/2000/svg">
<g clip-path="url(#clip0_54_10)">
<path d="M328.209 160.614C328.161 185.522 314.539 203.552 292.157 217.142C275.175 227.452 256.331 233.604 237.186 238.969C236.26 239.228 235.257 239.67 234.141 238.819C234.451 236.263 237.219 235.143 238.865 233.591C253.027 220.24 249.558 202.211 241.191 191.458C235.162 183.709 226.683 178.484 218.206 173.234C205.881 165.602 192.883 158.755 183.019 148.3C168.921 133.358 163.852 116.435 171.717 96.5049C172.057 95.6425 172.495 94.8006 172.967 93.9838C173.291 93.4236 173.753 92.9236 174.795 91.5511C182.213 108.056 194.27 120.472 208.808 131.036C204.461 125.495 199.49 120.378 195.646 114.515C187.286 101.765 182.05 88.1767 185.29 72.5195C187.597 61.3739 193.07 51.4211 201.219 42.5634C201.655 42.0895 202.332 41.7938 203.742 40.8485C203.012 66.7598 213.563 87.733 230.842 106.83C231.65 104.534 230.474 103.551 229.851 102.441C223.959 91.9524 218.923 81.1407 215.817 69.5408C208.958 43.921 220.493 22.6601 245.89 8.67691C249.338 6.77863 252.799 4.7694 257.075 3.89525C257.105 6.93018 255.252 9.25138 254.228 11.7359C247.38 28.3418 248.236 44.5889 253.053 60.8694C258.319 78.6694 267.097 95.0595 274.405 112.041C280.749 126.782 285.539 141.883 283.628 158.389C282.68 166.583 280.161 174.418 276.22 182.053C274.09 186.179 272.265 190.439 269.927 194.528C275.808 189.841 278.96 183.658 281.899 177.447C291.142 157.916 289.924 138.525 282.331 120.013C278.976 111.835 282.419 106.46 287.444 100.694C293.553 93.6821 301.238 88.4515 310.281 84.9806C311.213 84.6228 312.112 84.1767 313.002 83.7282C313.231 83.6126 313.367 83.3319 314.06 82.5361C303.88 73.7729 299.743 63.2588 306.977 50.267C309.346 54.9163 311.871 59.3323 315.375 63.2122C321.8 70.326 330.22 75.182 338.932 79.6329C347.541 84.0308 356.234 88.2931 363.14 94.7897C369.599 100.866 374.908 107.549 374.656 116.792C374.591 119.143 376.317 120.487 377.767 121.961C384.055 128.354 384.434 138.291 375.342 146.69C373.706 146.495 373.75 145.148 373.355 144.134C368.714 132.243 352.052 126.7 339.352 132.905C332.871 136.072 329.857 141.345 328.642 147.544C327.805 151.813 328.282 156.069 328.209 160.614ZM361.569 112.766C360.024 111.097 358.428 109.497 355.51 109.143C355.39 112.423 356.672 114.632 359.736 115.484C361.521 115.98 363.469 115.687 361.569 112.766Z" fill="#DF1919"/>
<path d="M79.9719 243.4C83.3534 241.103 86.4787 239.007 89.6041 236.911C69.373 244.659 51.5694 255.509 37.4567 271.407C36.6916 264.984 38.7521 259.118 41.2996 253.303C50.4687 232.371 69.6856 221.328 90.4872 211.881C95.6987 209.514 101.044 207.414 106.312 205.158C108.731 204.122 110.518 204.261 112.11 206.377C126.935 226.076 147.762 239.268 170.897 250.009C176.437 252.58 182.626 254.113 187.577 257.645C187.101 259.644 185.225 259.586 183.857 260.065C168.152 265.567 152.312 270.728 136.743 276.565C115.07 284.691 96.929 297.46 81.9422 314.032C81.1105 314.952 80.4853 316.02 79.7386 317.003C79.0124 317.96 78.6327 319.185 76.9926 319.757C75.226 318.54 75.8135 316.604 75.8729 314.943C76.4337 299.269 83.9343 285.684 93.9749 272.958C98.29 267.489 103.188 262.397 108.095 257.296C94.9474 265.094 83.7099 274.835 73.621 285.676C63.5642 296.482 55.0619 308.14 50.342 321.86C47.9015 320.87 47.787 319.104 47.3308 317.607C40.5539 295.369 47.8159 275.623 64.0577 257.505C68.6911 252.336 73.9632 247.741 79.9719 243.4Z" fill="#DF1919"/>
<path d="M175.315 246.204C174.009 244.647 173.364 242.827 170.549 244.005C168.99 244.657 168.063 243.148 167.442 242.026C166.695 240.677 166.387 239.074 165.464 237.858C162.97 234.573 160.591 231.202 154.759 232.955C151.578 233.912 148.29 232.869 145.139 232.221C143.811 231.947 142.662 231.301 142.835 229.931C143.056 228.181 144.662 228.554 145.867 228.611C149.87 228.801 153.854 228.761 157.689 227.184C160.489 226.033 162.905 224.441 162.467 221.305C162.032 218.191 159.184 217.767 156.407 217.807C149.885 217.901 143.664 217.212 138.235 213.941C136.999 213.197 135.343 212.691 136.404 210.462C142.988 210.067 149.268 213.841 156.427 211.345C155.421 209.225 153.579 208.928 151.539 208.835C147.149 208.633 142.768 208.421 138.559 207.27C136.811 206.792 135.498 206.119 135.136 204.332C136.765 202.47 138.842 203.518 140.706 203.416C144.981 203.182 149.327 203.514 153.511 202.762C157.966 201.961 162.147 198.463 166.792 201.842C167.492 202.351 169.234 201.562 170.392 200.414C163.685 197.131 154.823 200.219 148.938 195.095C152.883 193.097 156.987 192.952 160.948 192.222C162.62 191.914 164.368 192.129 166.073 191.964C168.015 191.777 170.331 191.972 171.195 189.763C172.086 187.485 169.297 187.704 168.328 186.671C167.463 185.749 165.983 185.273 165.953 183.821C166.803 182.185 168.367 182.503 169.725 182.313C174.259 181.679 178.791 181.029 183.326 180.407C184.363 180.264 185.736 180.023 185.691 179.044C185.509 175.109 188.612 175.912 190.97 175.718C193.336 175.523 195.141 174.981 197.377 173.519C200.466 171.501 204.863 171.017 208.769 170.335C210.535 170.027 210.723 172.01 210.684 173.206C210.552 177.275 212.673 180.18 215.508 182.922C218.206 185.531 220.478 188.774 220.186 192.407C219.959 195.24 219.028 198.072 220.167 200.536C218.192 202.116 216.663 200.172 214.698 201.664C215.106 208.612 223.708 213.857 219.077 222.912C217.218 224.157 215.018 220.604 211.994 221.757C212.47 225.864 214.723 229.387 216.037 233.207C216.516 234.598 217.892 236.172 215.777 237.328C213.924 238.341 213.064 236.566 212.029 235.68C210.463 234.339 209.018 232.882 206.861 231.777C206.015 238.713 213.718 243.255 212.063 250.452C208.719 250.305 206.967 248.4 205.835 246.08C203.683 241.672 200.036 238.829 195.213 237.024C193.264 236.294 191.57 235.271 190.392 233.583C189.25 231.946 189.036 228.858 185.492 230.236C182.192 231.519 179.348 233.428 179.058 237.073C178.819 240.086 179.273 242.987 180.581 245.711C181.375 247.366 181.88 249.05 180.695 251.087C177.279 251.049 177.014 248.132 175.315 246.204Z" fill="#319303"/>
</g>
<defs>
<clipPath id="clip0_54_10">
<rect width="410" height="323" fill="white"/>
</clipPath>
</defs>
</svg>
