<svg width="48" height="48" viewBox="0 0 48 48" fill="none" xmlns="http://www.w3.org/2000/svg">
  <rect width="48" height="48" rx="8" fill="#B45309"/>
  <path d="M24 6C16.268 6 10 12.268 10 20C10 27.732 16.268 34 24 34C31.732 34 38 27.732 38 20C38 12.268 31.732 6 24 6ZM24 8C30.617 8 36 13.383 36 20C36 26.617 30.617 32 24 32C17.383 32 12 26.617 12 20C12 13.383 17.383 8 24 8Z" fill="#FBBF24"/>
  <path d="M24 12C22.5 12 21.5 13 21 14C20.5 15 20 17 20 19C20 21 21 22 22 22C23 22 24 21 24 20C24 21 25 22 26 22C27 22 28 21 28 19C28 17 27.5 15 27 14C26.5 13 25.5 12 24 12Z" fill="#FEF3C7"/>
  <path d="M24 24C22 24 20 25 19 27C18 29 18 32 18 35C18 38 20 40 24 40C28 40 30 38 30 35C30 32 30 29 29 27C28 25 26 24 24 24Z" fill="#FBBF24"/>
  <path d="M24 26C22.5 26 21.5 27 20.5 29C22 28 23.5 28 24 29C24.5 28 26 28 27.5 29C26.5 27 25.5 26 24 26Z" fill="#FEF3C7"/>
  <path d="M24 31C23 31 22 32 21 33C22 33 23 32.5 24 33C25 32.5 26 33 27 33C26 32 25 31 24 31Z" fill="#FEF3C7"/>
  <path d="M24 35C23 35 22 36 21 37C22 37 23 36.5 24 37C25 36.5 26 37 27 37C26 36 25 35 24 35Z" fill="#FEF3C7"/>
</svg> 